<svg xmlns="http://www.w3.org/2000/svg" viewBox="0 0 230 430" font-family="-apple-system, Helvetica, Arial, sans-serif">
  <rect width="230" height="430" rx="26" fill="#efeff4"/>
  <clipPath id="scr3"><rect width="230" height="430" rx="26"/></clipPath>
  <g clip-path="url(#scr3)">
    <text x="20" y="26" font-size="13" font-weight="700" fill="#000">9:41</text>
    <rect x="194" y="18" width="16" height="11" rx="2" fill="none" stroke="#000" stroke-width="1.4"/>
    <rect x="196" y="20" width="9" height="7" rx="1" fill="#000"/>

    <text x="14" y="58" font-size="15" fill="#007aff">&#8249; General</text>
    <text x="115" y="58" font-size="16" font-weight="700" fill="#000" text-anchor="middle">About</text>

    <rect x="12" y="78" width="206" height="76" rx="11" fill="#fff"/>
    <text x="22" y="102" font-size="13" fill="#000">Network</text>
    <text x="208" y="102" font-size="13" fill="#8e8e93" text-anchor="end">Telstra</text>
    <line x1="22" y1="116" x2="218" y2="116" stroke="#e3e3e8" stroke-width="1"/>
    <text x="22" y="140" font-size="13" fill="#000">Carrier Version</text>
    <text x="208" y="140" font-size="13" fill="#8e8e93" text-anchor="end">54.0</text>

    <!-- IMEI card highlighted -->
    <rect x="12" y="168" width="206" height="44" rx="11" fill="#fff"/>
    <rect x="12" y="168" width="206" height="44" rx="11" fill="#dbeeff"/>
    <text x="22" y="195" font-size="13" font-weight="700" fill="#000">IMEI</text>
    <text x="208" y="195" font-size="13" font-weight="700" fill="#007aff" text-anchor="end">35 123456 789012 4</text>

    <!-- dial code hint -->
    <rect x="40" y="250" width="150" height="60" rx="14" fill="#1c1c1e"/>
    <text x="115" y="280" font-size="22" font-weight="700" fill="#fff" text-anchor="middle" font-family="monospace">*#06#</text>
    <text x="115" y="298" font-size="9" fill="#9aa0a6" text-anchor="middle">dial to show IMEI</text>
    <text x="115" y="340" font-size="12" fill="#8e8e93" text-anchor="middle">Settings &#8250; General &#8250; About</text>
  </g>
</svg>
