<svg xmlns="http://www.w3.org/2000/svg" viewBox="0 0 300 410" font-family="-apple-system, Helvetica, Arial, sans-serif">
  <rect width="300" height="410" rx="16" fill="#ececec"/>
  <clipPath id="w"><rect width="300" height="410" rx="16"/></clipPath>
  <g clip-path="url(#w)">
    <!-- traffic lights -->
    <circle cx="22" cy="20" r="6.5" fill="#ff5f57"/><circle cx="44" cy="20" r="6.5" fill="#c9c9c9"/><circle cx="66" cy="20" r="6.5" fill="#c9c9c9"/>

    <!-- laptop graphic -->
    <g transform="translate(150,120)">
      <rect x="-58" y="-40" width="116" height="74" rx="6" fill="#1d1d1f"/>
      <rect x="-53" y="-35" width="106" height="62" rx="2" fill="#4aa3e8"/>
      <rect x="-10" y="-40" width="20" height="4" rx="2" fill="#1d1d1f"/>
      <path d="M-72 34 h144 l8 8 a4 4 0 0 1 -3 6 h-154 a4 4 0 0 1 -3 -6 z" fill="#c7ccd1"/>
      <rect x="-16" y="36" width="32" height="3" rx="1.5" fill="#9aa0a6"/>
    </g>

    <text x="150" y="190" font-size="24" font-weight="700" fill="#1a1a1a" text-anchor="middle">MacBook Pro</text>
    <text x="150" y="210" font-size="12" fill="#777" text-anchor="middle">14-inch, Nov 2023</text>

    <g font-size="13">
      <rect x="40" y="232" width="220" height="30" rx="8" fill="none" stroke="#e8403a" stroke-width="2.5"/>
      <text x="140" y="252" fill="#333" text-anchor="end" font-weight="700">Chip</text>
      <text x="156" y="252" fill="#1a1a1a" font-weight="700">Apple M3 Pro</text>

      <text x="140" y="282" fill="#333" text-anchor="end" font-weight="700">Memory</text>
      <text x="156" y="282" fill="#444" font-weight="700">18 GB</text>

      <text x="140" y="310" fill="#333" text-anchor="end" font-weight="700">Serial number</text>
      <text x="156" y="310" fill="#444">C8XX...</text>

      <text x="140" y="338" fill="#333" text-anchor="end" font-weight="700">macOS</text>
      <text x="156" y="338" fill="#444">Sequoia 15.4</text>
    </g>

    <rect x="108" y="356" width="84" height="26" rx="6" fill="#e6e6e6" stroke="#c2c2c2" stroke-width="1"/>
    <text x="150" y="373" font-size="12" fill="#333" text-anchor="middle">More Info…</text>
  </g>
</svg>
